<svg width="50" height="50" viewBox="0 0 50 50" fill="none" xmlns="http://www.w3.org/2000/svg">
<g clip-path="url(#clip0_101_27)">
<path d="M24.9998 4.16675C13.4998 4.16675 4.1665 13.5001 4.1665 25.0001C4.1665 36.5001 13.4998 45.8334 24.9998 45.8334C36.4998 45.8334 45.8332 36.5001 45.8332 25.0001C45.8332 13.5001 36.4998 4.16675 24.9998 4.16675ZM24.9998 12.5001C29.0207 12.5001 32.2915 15.7709 32.2915 19.7917C32.2915 23.8126 29.0207 27.0834 24.9998 27.0834C20.979 27.0834 17.7082 23.8126 17.7082 19.7917C17.7082 15.7709 20.979 12.5001 24.9998 12.5001ZM24.9998 41.6668C20.7707 41.6668 15.7707 39.9584 12.2082 35.6668C15.729 32.9168 20.1665 31.2501 24.9998 31.2501C29.8332 31.2501 34.2707 32.9168 37.7915 35.6668C34.229 39.9584 29.229 41.6668 24.9998 41.6668Z" fill="black"/>
</g>
<defs>
<clipPath id="clip0_101_27">
<rect width="50" height="50" fill="white"/>
</clipPath>
</defs>
</svg>
