<svg width="473" height="210" viewBox="0 0 473 210" fill="none" xmlns="http://www.w3.org/2000/svg">
<path fill-rule="evenodd" clip-rule="evenodd" d="M45.5 0H126.5C146.5 8.16667 174.5 34.1 126.5 72.5C145.5 85 149.5 158.5 49.5 154L0 210V154L36.5 40.5H81L74 62.5L90.5 61.5C105.5 61.5 126.5 32.3 90.5 31.5C60.3626 30.8303 45.8768 31.2819 40.5891 31.4467C39.5605 31.4788 38.88 31.5 38.5 31.5L45.5 0ZM54.5 120.5L63 92.5H85C113 90.5 93.5 123 74 120.5H54.5Z" fill="white"/>
<path d="M159 111H145.5V152H160.5V129.5C159.7 123.5 170.5 123.667 176 124.5V111C168.8 108.6 161.667 114 159 117V111Z" fill="white"/>
<path d="M251 111H237.5V152H252.5V126C258.1 120.4 262.833 123.667 264.5 126L265 152H279V121C279 119 277.667 116.5 277 115.5C265.8 106.7 255 111.833 251 115.5V111Z" fill="white"/>
<path fill-rule="evenodd" clip-rule="evenodd" d="M319.5 90.5V113.5C315.333 111.5 304.9 108.9 296.5 114.5C286 121.5 288 135 289 140C290 145 296.5 153.5 320.5 153H334V90.5H319.5ZM319.5 141.5V125.5C314.5 123.667 304.3 122.4 303.5 132C302.7 141.6 313.833 142.333 319.5 141.5Z" fill="white"/>
<path fill-rule="evenodd" clip-rule="evenodd" d="M212 111H226.5V151.5H212C203 152.333 184.2 151.2 181 140C177 126 182 115 193 112.5C201.8 110.5 209.333 112.667 212 114V111ZM212 141.5V125.5C211.5 125 210.2 123.9 209 123.5C207.5 123 195 120.5 195.5 132.5C195.9 142.1 206.667 142.5 212 141.5Z" fill="white"/>
<path d="M89.9 194.782H121.06V197.404H89.9V194.782ZM93.548 170.044H96.702V176.39H114.182V170.044H117.298V187.942H93.548V170.044ZM96.702 178.936V185.396H114.182V178.936H96.702ZM220.351 167.612H223.353V193.186H220.351V167.612ZM214.803 177.872H221.301V180.456H214.803V177.872ZM212.751 168.258H215.715V192.198H212.751V168.258ZM200.933 198.62H224.379V201.204H200.933V198.62ZM200.933 190.868H204.087V199.532H200.933V190.868ZM195.955 185.51H198.197C199.818 185.51 201.313 185.485 202.681 185.434C204.074 185.383 205.43 185.282 206.747 185.13C208.064 184.978 209.407 184.763 210.775 184.484L211.117 187.03C209.673 187.309 208.28 187.524 206.937 187.676C205.594 187.828 204.214 187.929 202.795 187.98C201.376 188.031 199.844 188.056 198.197 188.056H195.955V185.51ZM195.879 170.538H208.799V180.38H198.995V186.84H195.955V177.948H205.759V173.084H195.879V170.538ZM300.604 190.868H303.226C305.379 190.868 307.305 190.843 309.002 190.792C310.699 190.716 312.308 190.602 313.828 190.45C315.373 190.298 316.931 190.07 318.502 189.766L318.882 192.35C317.235 192.679 315.627 192.92 314.056 193.072C312.485 193.224 310.839 193.338 309.116 193.414C307.393 193.49 305.43 193.528 303.226 193.528H300.604V190.868ZM300.604 170.842H316.222V173.464H303.758V191.818H300.604V170.842ZM324.05 167.574H327.204V202.002H324.05V167.574ZM314.208 180.038H325.38V182.66H314.208V180.038ZM417.147 169.93H419.921V172.59C419.921 174.085 419.655 175.503 419.123 176.846C418.616 178.189 417.907 179.443 416.995 180.608C416.108 181.748 415.07 182.774 413.879 183.686C412.714 184.598 411.46 185.371 410.117 186.004C408.8 186.637 407.457 187.119 406.089 187.448L404.683 184.826C405.874 184.573 407.064 184.18 408.255 183.648C409.471 183.116 410.611 182.47 411.675 181.71C412.739 180.925 413.676 180.051 414.487 179.088C415.323 178.125 415.969 177.099 416.425 176.01C416.906 174.895 417.147 173.755 417.147 172.59V169.93ZM417.755 169.93H420.453V172.59C420.453 173.755 420.694 174.895 421.175 176.01C421.656 177.099 422.302 178.125 423.113 179.088C423.949 180.051 424.899 180.925 425.963 181.71C427.027 182.47 428.154 183.129 429.345 183.686C430.561 184.218 431.777 184.598 432.993 184.826L431.549 187.448C430.181 187.119 428.838 186.637 427.521 186.004C426.204 185.371 424.95 184.598 423.759 183.686C422.594 182.774 421.555 181.748 420.643 180.608C419.731 179.443 419.022 178.189 418.515 176.846C418.008 175.503 417.755 174.085 417.755 172.59V169.93ZM403.391 194.706H434.551V197.328H403.391V194.706Z" fill="white"/>
<path d="M410.231 111.215H395V153H411.754V129.582C414.191 124.807 423.6 124.837 428 125.45V111.215C422.72 110.113 413.954 113.511 410.231 115.348V111.215Z" fill="white"/>
<path d="M471.823 123.771H460.452C461.243 120.491 456.496 119.846 454.024 119.934C450.069 120.254 443.641 125.857 455.507 127.608C473.702 130.294 472.898 139.91 471.823 144C470.749 148.09 468.659 153.605 454.024 153.989C439.389 154.373 435.235 145.5 436.5 139.12H446.5C446.5 146 459.5 148 460.452 140.5C461.403 133 436.298 140.559 435.236 123.771C434.173 106.984 472.318 106.504 471.823 123.771Z" fill="white"/>
<path fill-rule="evenodd" clip-rule="evenodd" d="M373.598 142H379.5H385C385 146.5 384.098 149.713 376.098 152.713C362.598 155.713 354.098 152.713 349.098 148.213C345.016 144.54 339.098 133.713 346.598 119.713C354.064 105.775 381.433 106.604 386.098 123.713C387.598 129.213 386.598 130.216 386.098 135.715L358.098 135.715C354.098 143.713 370 148.213 373.598 142ZM373.598 126.715H356.598C357.098 124.549 359.498 120.015 365.098 119.215C370.698 118.415 373.098 123.882 373.598 126.715Z" fill="white"/>
</svg>
